<svg width="259" height="260" viewBox="0 0 259 260" fill="none" xmlns="http://www.w3.org/2000/svg">
<g clip-path="url(#clip0_109_994)">
<path d="M220.75 104.793C220.75 104.096 221.586 103.739 222.09 104.221C223.64 105.707 224.541 108.967 223.475 111.441L223.412 111.579L223.421 111.582C223.916 111.687 224.373 111.241 225.244 109.861L225.355 109.684C225.419 109.581 225.507 109.493 225.61 109.429C225.713 109.365 225.83 109.325 225.951 109.314C226.073 109.302 226.195 109.318 226.309 109.362C226.422 109.405 226.525 109.474 226.608 109.563C227.664 110.699 228.667 113.028 228.667 114.527C228.667 117.903 225.824 120.626 222.333 120.626C218.843 120.626 216 117.903 216 114.526C216 112.743 216.809 110.792 218.084 109.537L218.563 109.071C218.753 108.884 218.906 108.731 219.052 108.577C220.184 107.38 220.75 106.262 220.75 104.793Z" fill="#FF3F3F"/>
</g>
<path d="M214.632 138.346C214.803 136.648 215.353 135.176 216.282 133.929C217.235 132.712 218.466 131.804 219.973 131.205C221.478 130.633 223.172 130.441 225.056 130.631C226.967 130.823 228.601 131.362 229.959 132.249C231.314 133.163 232.322 134.336 232.982 135.77C233.639 137.229 233.877 138.861 233.695 140.666C233.514 142.47 232.974 143.97 232.077 145.166C231.203 146.392 230.028 147.279 228.553 147.827C227.077 148.375 225.371 148.552 223.434 148.357C223.248 148.339 223.051 148.305 222.841 148.257C222.655 148.239 222.536 148.227 222.483 148.221L224.056 132.58L226.762 132.853L225.441 145.986L223.739 144.529C223.863 144.622 224.054 144.721 224.312 144.827C224.596 144.936 224.83 145 225.016 145.019C226.104 145.128 227.069 144.998 227.91 144.627C228.749 144.282 229.432 143.748 229.961 143.024C230.489 142.3 230.805 141.42 230.909 140.385C231.032 139.165 230.872 138.09 230.43 137.161C230.011 136.261 229.335 135.523 228.401 134.947C227.491 134.4 226.335 134.042 224.931 133.874C223.498 133.73 222.255 133.833 221.201 134.183C220.148 134.532 219.312 135.118 218.693 135.94C218.074 136.763 217.702 137.797 217.577 139.044C217.451 140.291 217.606 141.419 218.04 142.428C218.501 143.439 219.256 144.332 220.304 145.108L218.412 147.531C216.969 146.421 215.923 145.096 215.274 143.557C214.648 142.046 214.434 140.31 214.632 138.346Z" fill="white"/>
<path d="M231.865 152.189L230.805 155.63L216.851 156.774L227.745 165.569L226.685 169.01L210.352 154.773L231.865 152.189Z" fill="white"/>
<path d="M205.014 170.228C205.821 168.724 206.893 167.575 208.229 166.779C209.575 166.019 211.06 165.651 212.682 165.675C214.291 165.722 215.929 166.193 217.597 167.09C219.289 167.998 220.592 169.122 221.507 170.462C222.41 171.824 222.891 173.294 222.952 174.871C223.001 176.471 222.596 178.07 221.738 179.667C220.879 181.264 219.807 182.444 218.52 183.205C217.244 184.003 215.819 184.373 214.246 184.315C212.673 184.257 211.029 183.767 209.314 182.846C209.149 182.757 208.979 182.651 208.804 182.526C208.64 182.438 208.534 182.381 208.487 182.356L215.927 168.508L218.323 169.795L212.076 181.423L211.061 179.425C211.14 179.559 211.279 179.724 211.476 179.92C211.696 180.13 211.889 180.278 212.053 180.367C213.016 180.884 213.957 181.133 214.877 181.112C215.783 181.115 216.619 180.883 217.385 180.416C218.15 179.949 218.779 179.258 219.271 178.342C219.852 177.261 220.115 176.207 220.062 175.18C220.02 174.188 219.677 173.247 219.035 172.358C218.404 171.504 217.472 170.731 216.24 170.038C214.972 169.357 213.784 168.976 212.676 168.896C211.569 168.815 210.572 169.037 209.686 169.56C208.8 170.082 208.06 170.896 207.467 172C206.874 173.104 206.585 174.205 206.6 175.303C206.639 176.414 206.994 177.528 207.665 178.645L204.99 180.159C204.082 178.582 203.623 176.957 203.612 175.287C203.612 173.652 204.08 171.966 205.014 170.228Z" fill="white"/>
<path d="M200.706 196.205C201.86 197.195 202.947 197.688 203.968 197.686C204.989 197.683 205.916 197.196 206.75 196.225C207.357 195.517 207.744 194.759 207.909 193.952C208.077 193.183 208.028 192.421 207.762 191.665C207.479 190.931 206.994 190.268 206.306 189.678L197.805 182.385L199.889 179.956L213.854 191.937L211.77 194.366L209.584 192.491C210.035 193.685 210.168 194.8 209.982 195.836C209.779 196.892 209.287 197.875 208.506 198.785C207.238 200.263 205.744 201.001 204.023 201.001C202.305 201.037 200.606 200.335 198.926 198.894L190.122 191.341L192.205 188.912L200.706 196.205Z" fill="white"/>
<path d="M200.437 206.685L193.411 212.624L191.475 210.333L198.501 204.394L200.437 206.685ZM202.278 213.509L199.834 215.575L183.824 196.636L186.267 194.57L202.278 213.509Z" fill="white"/>
<path d="M186.69 206.638C187.657 208.235 188.16 209.863 188.199 211.523C188.215 213.197 187.822 214.76 187.018 216.213C186.215 217.666 185.049 218.856 183.521 219.782C181.97 220.721 180.376 221.203 178.739 221.228C177.079 221.267 175.522 220.885 174.069 220.082C172.593 219.292 171.372 218.099 170.405 216.503C169.451 214.929 168.96 213.294 168.93 211.597C168.891 209.937 169.273 208.381 170.076 206.927C170.857 205.488 172.023 204.299 173.574 203.359C175.102 202.434 176.696 201.951 178.356 201.912C180.016 201.873 181.584 202.249 183.06 203.038C184.527 203.864 185.737 205.064 186.69 206.638ZM183.919 208.317C183.256 207.222 182.44 206.391 181.473 205.823C180.483 205.269 179.437 204.983 178.334 204.965C177.223 204.983 176.154 205.304 175.128 205.925C174.102 206.547 173.334 207.339 172.826 208.302C172.309 209.301 172.078 210.36 172.133 211.481C172.165 212.615 172.513 213.729 173.176 214.824C173.839 215.919 174.666 216.743 175.656 217.297C176.637 217.887 177.683 218.173 178.795 218.155C179.883 218.15 180.94 217.837 181.967 217.216C182.993 216.594 183.772 215.795 184.303 214.818C184.811 213.856 185.042 212.796 184.996 211.639C184.941 210.519 184.582 209.412 183.919 208.317Z" fill="white"/>
<path d="M164.968 214.624C164.427 214.225 163.848 213.881 163.233 213.593C162.619 213.306 161.973 213.128 161.296 213.062C160.604 213.029 159.907 213.14 159.205 213.394C158.352 213.703 157.756 214.132 157.416 214.681C157.06 215.264 157.004 215.893 157.25 216.57C157.468 217.172 157.85 217.601 158.397 217.857C158.927 218.146 159.543 218.32 160.245 218.378C160.956 218.461 161.695 218.505 162.463 218.51C163.324 218.539 164.216 218.612 165.138 218.732C166.045 218.885 166.88 219.193 167.642 219.654C168.389 220.149 168.944 220.898 169.308 221.901C169.68 222.929 169.726 223.877 169.445 224.744C169.138 225.621 168.618 226.377 167.884 227.012C167.125 227.656 166.281 228.146 165.353 228.482C164.426 228.818 163.506 228.981 162.595 228.971C161.659 228.97 160.786 228.833 159.978 228.558C159.169 228.284 158.471 227.885 157.884 227.36L159.732 224.946C160.445 225.425 161.242 225.746 162.123 225.909C162.98 226.08 163.859 226.003 164.762 225.676C165.389 225.448 165.878 225.115 166.229 224.676C166.58 224.237 166.651 223.729 166.442 223.152C166.279 222.701 165.958 222.363 165.48 222.139C165.002 221.916 164.437 221.766 163.785 221.69C163.134 221.614 162.462 221.56 161.769 221.527C160.621 221.489 159.547 221.382 158.547 221.206C157.556 221.054 156.704 220.739 155.992 220.26C155.254 219.79 154.699 219.041 154.326 218.013C153.781 216.509 153.878 215.055 154.618 213.653C155.333 212.259 156.58 211.24 158.36 210.595C159.513 210.177 160.626 210 161.699 210.065C162.782 210.155 163.767 210.408 164.655 210.823C165.518 211.248 166.235 211.74 166.806 212.299L164.968 214.624Z" fill="white"/>
<path d="M140.566 221.171C140.523 220.479 140.326 219.89 139.976 219.405C139.598 218.92 139.109 218.563 138.507 218.333C137.88 218.131 137.18 218.054 136.409 218.102C135.424 218.163 134.558 218.417 133.811 218.864C133.037 219.312 132.446 219.91 132.038 220.657C131.605 221.431 131.418 222.298 131.477 223.256L130.69 220.9C130.618 219.729 130.917 218.735 131.588 217.919C132.232 217.105 133.062 216.479 134.077 216.042C135.065 215.607 136.065 215.358 137.077 215.296C138.195 215.226 139.26 215.388 140.273 215.779C141.26 216.199 142.074 216.83 142.714 217.672C143.354 218.514 143.713 219.561 143.79 220.812C143.9 222.595 143.363 224.058 142.177 225.2C140.967 226.37 139.231 227.025 136.969 227.165C135.638 227.247 134.524 227.156 133.625 226.891C132.702 226.654 131.962 226.352 131.405 225.986C130.85 225.646 130.472 225.362 130.271 225.134L130.155 223.258C131.126 223.839 132.112 224.232 133.113 224.437C134.116 224.669 135.176 224.751 136.294 224.682C137.332 224.618 138.176 224.432 138.825 224.125C139.447 223.819 139.903 223.417 140.193 222.918C140.483 222.419 140.607 221.837 140.566 221.171ZM141.568 229.606L143.271 231.865C142.61 232.413 141.696 232.978 140.53 233.557C139.337 234.139 137.889 234.482 136.185 234.587C134.748 234.676 133.483 234.527 132.39 234.141C131.273 233.782 130.396 233.209 129.759 232.42C129.096 231.632 128.727 230.64 128.653 229.442L127.839 216.267L131.033 216.07L131.82 228.806C131.86 229.444 131.998 229.957 132.236 230.343C132.475 230.756 132.802 231.069 133.216 231.284C133.603 231.501 134.053 231.647 134.565 231.722C135.078 231.797 135.613 231.817 136.172 231.783C137.077 231.727 137.896 231.569 138.628 231.31C139.333 231.053 139.93 230.762 140.417 230.438C140.905 230.114 141.289 229.837 141.568 229.606Z" fill="white"/>
<path d="M110.86 225.512C110.633 227.015 110.791 228.198 111.334 229.063C111.878 229.927 112.782 230.455 114.048 230.647C114.971 230.786 115.818 230.712 116.59 230.424C117.331 230.159 117.952 229.713 118.451 229.088C118.924 228.458 119.228 227.695 119.364 226.799L121.039 215.725L124.203 216.203L121.45 234.396L118.286 233.917L118.717 231.07C117.943 232.086 117.068 232.789 116.092 233.181C115.089 233.569 113.995 233.673 112.808 233.493C110.883 233.202 109.465 232.326 108.553 230.867C107.611 229.43 107.305 227.617 107.637 225.428L109.372 213.959L112.536 214.438L110.86 225.512Z" fill="white"/>
<path d="M96.7959 237.198C96.6043 237.781 96.2393 238.208 95.7007 238.48C95.1368 238.744 94.5762 238.784 94.0189 238.601C93.4362 238.41 93.0088 238.045 92.7368 237.506C92.4647 236.967 92.4244 236.407 92.6159 235.824C92.7991 235.267 93.1642 234.84 93.7111 234.542C94.2496 234.27 94.8102 234.23 95.3929 234.421C95.9502 234.604 96.3776 234.969 96.675 235.516C96.9388 236.08 96.9791 236.641 96.7959 237.198ZM98.5992 229.791L95.5592 228.792L101.305 211.312L104.345 212.311L98.5992 229.791Z" fill="white"/>
<path d="M90.8583 227.46L87.638 225.851L88.7973 211.897L78.3348 221.202L75.1145 219.593L91.8368 205.814L90.8583 227.46Z" fill="white"/>
<path d="M77.4044 197.984C78.7547 199.027 79.7126 200.273 80.2782 201.722C80.8064 203.175 80.9255 204.7 80.6355 206.296C80.3245 207.875 79.59 209.414 78.432 210.912C77.2577 212.431 75.9348 213.532 74.4634 214.214C72.9709 214.881 71.442 215.114 69.8767 214.916C68.2903 214.7 66.7798 214.038 65.3452 212.929C63.9105 211.82 62.9233 210.568 62.3836 209.174C61.8065 207.784 61.6759 206.318 61.9917 204.775C62.3076 203.233 63.0608 201.692 64.2514 200.152C64.3656 200.004 64.4984 199.854 64.65 199.702C64.7642 199.554 64.8376 199.459 64.8702 199.417L77.3073 209.031L75.6437 211.183L65.2004 203.11L67.3384 202.437C67.1936 202.494 67.0079 202.603 66.7816 202.765C66.5389 202.948 66.3604 203.114 66.2463 203.261C65.5776 204.126 65.1779 205.014 65.0473 205.924C64.8956 206.818 64.987 207.681 65.3216 208.512C65.6562 209.344 66.2349 210.078 67.0577 210.714C68.0282 211.464 69.0246 211.897 70.047 212.014C71.032 212.135 72.0161 211.952 72.9993 211.465C73.9451 210.982 74.8608 210.19 75.7463 209.089C76.627 207.949 77.1979 206.84 77.459 205.761C77.7201 204.682 77.6656 203.663 77.2956 202.702C76.9256 201.742 76.2447 200.879 75.2531 200.112C74.2616 199.346 73.2229 198.88 72.1372 198.715C71.0352 198.571 69.878 198.738 68.6655 199.216L67.6115 196.329C69.317 195.692 70.9945 195.506 72.6442 195.77C74.2564 196.039 75.8432 196.777 77.4044 197.984Z" fill="white"/>
<path d="M52.8223 200.929L66.3878 188.498L68.5498 190.857L54.9842 203.288L52.8223 200.929ZM51.661 194.452C51.7134 194.983 51.8075 195.421 51.9434 195.766C52.0596 196.13 52.2979 196.509 52.6583 196.902C53.1987 197.492 53.7696 197.818 54.3708 197.882C54.9719 197.946 55.5912 197.813 56.2285 197.482C56.8477 197.132 57.4817 196.659 58.1305 196.065L59.1034 197.126C58.0221 198.117 56.8974 198.804 55.7294 199.187C54.5237 199.569 53.3958 199.68 52.3458 199.521C51.2958 199.362 50.4825 198.968 49.906 198.339C49.4556 197.847 49.11 197.332 48.8693 196.793C48.5909 196.252 48.4763 195.634 48.5256 194.938L51.661 194.452Z" fill="white"/>
<path d="M55.5542 184.436C55.815 183.815 56.0129 183.172 56.148 182.507C56.2831 181.842 56.3036 181.173 56.2095 180.499C56.0784 179.818 55.8067 179.167 55.3944 178.544C54.8938 177.788 54.3368 177.31 53.7236 177.108C53.0733 176.899 52.4481 176.993 51.8478 177.391C51.3142 177.744 50.9874 178.217 50.8673 178.808C50.7102 179.392 50.6861 180.031 50.7949 180.727C50.8816 181.437 51.0125 182.166 51.1877 182.914C51.3627 183.757 51.5006 184.642 51.6013 185.566C51.6652 186.484 51.5626 187.367 51.2938 188.217C50.9881 189.059 50.3905 189.775 49.5012 190.364C48.5897 190.968 47.6792 191.235 46.7697 191.166C45.8455 191.074 44.9885 190.746 44.1988 190.181C43.3944 189.595 42.7198 188.89 42.175 188.068C41.6301 187.245 41.2555 186.39 41.0511 185.501C40.832 184.591 40.7606 183.711 40.8372 182.86C40.9137 182.01 41.1379 181.238 41.5098 180.544L44.2907 181.772C43.9924 182.578 43.8678 183.428 43.9169 184.323C43.9513 185.196 44.2335 186.032 44.7636 186.833C45.1317 187.389 45.5706 187.786 46.0802 188.024C46.5898 188.262 47.1003 188.212 47.6116 187.873C48.0118 187.608 48.2645 187.217 48.3696 186.699C48.4747 186.182 48.4875 185.598 48.4081 184.947C48.3287 184.296 48.2235 183.63 48.0924 182.949C47.8591 181.824 47.7107 180.755 47.6472 179.741C47.5614 178.743 47.6677 177.841 47.966 177.035C48.2495 176.208 48.847 175.492 49.7586 174.888C51.0925 174.005 52.5281 173.758 54.0653 174.147C55.5878 174.514 56.8717 175.487 57.9172 177.065C58.5946 178.088 59.0278 179.128 59.217 180.187C59.3838 181.259 59.3697 182.276 59.1745 183.237C58.9646 184.176 58.6552 184.989 58.2464 185.675L55.5542 184.436Z" fill="white"/>
<path d="M47.3513 170.636C47.9408 170.387 48.3871 170.039 48.6904 169.592C48.9691 169.156 49.1099 168.633 49.1128 168.024C49.0807 167.4 48.8985 166.696 48.566 165.91C48.1505 164.927 47.6344 164.118 47.0176 163.481C46.4009 162.844 45.6849 162.452 44.8698 162.305C44.0442 162.133 43.1034 162.27 42.0473 162.717L43.64 161.348C44.7207 160.891 45.7786 160.791 46.8138 161.048C47.8141 161.291 48.7256 161.803 49.5483 162.585C50.3463 163.376 50.9947 164.361 51.4933 165.54C51.9816 166.695 52.2162 167.797 52.1972 168.847C52.1537 169.908 51.8674 170.84 51.3383 171.643C50.7989 172.421 50.0134 173.028 48.9819 173.465C47.6556 174.026 46.4277 174.169 45.298 173.894C44.1437 173.629 43.117 173.05 42.2179 172.156C41.3083 171.238 40.5679 170.103 39.9965 168.753C39.5394 167.672 39.2973 166.689 39.2699 165.803C39.2077 164.902 39.2621 164.141 39.4331 163.519C39.5796 162.907 39.727 162.468 39.8753 162.202L41.6068 161.47C41.3705 162.554 41.2991 163.584 41.3925 164.557C41.4614 165.542 41.7244 166.574 42.1814 167.655C42.597 168.637 43.08 169.403 43.6307 169.952C44.1709 170.476 44.7542 170.794 45.3804 170.905C46.0067 171.017 46.6636 170.927 47.3513 170.636ZM39.357 174.018L37.7175 176.405C36.9807 175.964 36.1505 175.302 35.2268 174.418C34.3031 173.535 33.5192 172.332 32.8751 170.809C32.3246 169.508 32.0555 168.29 32.0679 167.155C32.0453 166.006 32.3004 165.001 32.8333 164.139C33.3557 163.252 34.1695 162.575 35.2747 162.107L47.432 156.965L48.6785 159.912L36.5213 165.054C35.6617 165.418 35.1789 166.056 35.0731 166.97C34.9322 167.869 35.0592 168.785 35.4539 169.719C35.7967 170.529 36.2189 171.219 36.7204 171.789C37.1974 172.369 37.6871 172.842 38.1896 173.209C38.6571 173.561 39.0463 173.831 39.357 174.018ZM22.6456 168.187L30.9764 172.481L30.5723 174.606L22.3406 171.573L22.6456 168.187Z" fill="white"/>
<path d="M27.955 154.643L45.8687 150.44L46.5996 153.556L28.6859 157.758L27.955 154.643ZM30.1121 148.426C29.898 148.914 29.7656 149.342 29.715 149.71C29.6384 150.084 29.661 150.531 29.7828 151.05C29.9656 151.829 30.3034 152.394 30.7964 152.744C31.2893 153.094 31.8946 153.28 32.6123 153.304C33.3238 153.301 34.108 153.199 34.9647 152.998L35.2936 154.4C33.8657 154.735 32.5487 154.784 31.3426 154.547C30.1044 154.289 29.0664 153.834 28.2286 153.182C27.3907 152.529 26.8743 151.787 26.6794 150.957C26.5271 150.308 26.4779 149.689 26.5318 149.101C26.5535 148.494 26.7562 147.898 27.1399 147.315L30.1121 148.426Z" fill="white"/>
<path d="M18.2999 144.224C17.6899 144.288 17.1505 144.13 16.6818 143.75C16.2104 143.343 15.9441 142.848 15.8832 142.265C15.8195 141.655 15.9776 141.116 16.3576 140.647C16.7377 140.178 17.2327 139.912 17.8427 139.848C18.4262 139.787 18.9655 139.945 19.4607 140.323C19.9294 140.703 20.1956 141.198 20.2594 141.808C20.3203 142.391 20.1622 142.931 19.7849 143.426C19.3784 143.897 18.8834 144.163 18.2999 144.224ZM25.7964 142.838L25.4639 139.655L43.7643 137.743L44.0968 140.926L25.7964 142.838Z" fill="white"/>
<path d="M33.822 133.635C31.9589 133.519 30.3342 133.005 28.9479 132.091C27.5633 131.15 26.5029 129.936 25.7666 128.448C25.0304 126.96 24.7174 125.324 24.8276 123.541C24.9395 121.731 25.4515 120.146 26.3638 118.786C27.2777 117.4 28.4788 116.339 29.9671 115.602C31.457 114.84 33.1335 114.516 34.9966 114.631C36.8331 114.744 38.457 115.272 39.8682 116.214C41.2545 117.128 42.3157 118.329 43.052 119.818C43.7899 121.279 44.1029 122.915 43.991 124.725C43.8808 126.508 43.3687 128.093 42.4548 129.479C41.5409 130.866 40.3389 131.94 38.849 132.703C37.3342 133.438 35.6585 133.748 33.822 133.635ZM34.0219 130.401C35.2994 130.48 36.4471 130.284 37.4647 129.812C38.4841 129.314 39.3153 128.617 39.9584 127.722C40.5766 126.798 40.9227 125.738 40.9967 124.54C41.0708 123.342 40.8571 122.26 40.3557 121.294C39.8294 120.3 39.0903 119.506 38.1384 118.913C37.1882 118.293 36.0743 117.944 34.7967 117.865C33.5192 117.786 32.3707 117.995 31.3514 118.493C30.3071 118.963 29.4758 119.66 28.8577 120.584C28.2412 121.481 27.8959 122.528 27.8219 123.726C27.7478 124.923 27.9607 126.019 28.4604 127.011C28.9617 127.977 29.7008 128.771 30.6777 129.393C31.6296 129.986 32.7443 130.322 34.0219 130.401Z" fill="white"/>
<path d="M39.5703 111.295C40.2069 111.076 40.8182 110.795 41.4045 110.453C41.9908 110.111 42.5037 109.681 42.9433 109.162C43.3639 108.611 43.6692 107.974 43.859 107.252C44.0895 106.375 44.0757 105.641 43.8176 105.049C43.5406 104.425 43.0539 104.021 42.3575 103.838C41.7386 103.675 41.1685 103.746 40.6474 104.05C40.1073 104.322 39.614 104.73 39.1676 105.274C38.6954 105.812 38.2388 106.395 37.7979 107.024C37.285 107.716 36.7172 108.408 36.0944 109.099C35.4526 109.757 34.7252 110.269 33.9123 110.634C33.0803 110.967 32.1486 110.998 31.1169 110.727C30.0595 110.449 29.2538 109.948 28.6999 109.223C28.1527 108.472 27.8267 107.615 27.7219 106.65C27.6239 105.659 27.7003 104.686 27.9512 103.732C28.202 102.778 28.5906 101.929 29.117 101.185C29.6503 100.415 30.2595 99.7757 30.9448 99.2665C31.6301 98.7573 32.3555 98.4104 33.1209 98.2256L34.0562 101.118C33.2569 101.432 32.5397 101.905 31.9046 102.538C31.2764 103.145 30.8402 103.913 30.5962 104.841C30.4267 105.486 30.4228 106.078 30.5844 106.616C30.7461 107.155 31.1235 107.503 31.7167 107.658C32.1809 107.781 32.641 107.708 33.097 107.442C33.553 107.176 33.9974 106.797 34.4302 106.304C34.8631 105.811 35.2898 105.289 35.7104 104.738C36.3942 103.815 37.093 102.992 37.8068 102.27C38.4947 101.541 39.2384 101.019 40.0377 100.705C40.8439 100.366 41.7757 100.335 42.8331 100.613C44.3805 101.02 45.5209 101.926 46.2542 103.332C46.9943 104.712 47.1237 106.318 46.6424 108.149C46.3305 109.335 45.8428 110.352 45.1794 111.197C44.4901 112.036 43.722 112.703 42.8752 113.197C42.0352 113.666 41.2229 113.976 40.4384 114.128L39.5703 111.295Z" fill="white"/>
<path d="M56.0267 85.9335C55.1371 87.39 54.0034 88.4787 52.6257 89.1996C51.2392 89.8839 49.7368 90.1693 48.1187 90.0559C46.5145 89.9198 44.9045 89.3583 43.2887 88.3715C41.6502 87.3707 40.411 86.1764 39.5713 84.7886C38.7455 83.3781 38.3456 81.884 38.3718 80.3063C38.4118 78.7059 38.9044 77.132 39.8496 75.5845C40.7948 74.0369 41.931 72.9185 43.2581 72.2293C44.5764 71.5033 46.0193 71.2128 47.5869 71.3578C49.1544 71.5028 50.7688 72.0826 52.4302 73.0973C52.5895 73.1946 52.7532 73.3102 52.9214 73.4442C53.0807 73.5415 53.1831 73.604 53.2286 73.6318L45.0348 87.0475L42.7135 85.6297L49.5938 74.3647L50.4969 76.4161C50.4248 76.2783 50.2958 76.1058 50.1099 75.8985C49.9013 75.6774 49.7173 75.5181 49.558 75.4208C48.625 74.851 47.6989 74.551 46.7799 74.5209C45.8748 74.468 45.0272 74.6534 44.2373 75.0771C43.4473 75.5008 42.7813 76.1564 42.2392 77.0439C41.5998 78.0908 41.2783 79.1287 41.2748 80.1577C41.2624 81.15 41.5521 82.1082 42.144 83.0321C42.727 83.9194 43.6146 84.7427 44.8068 85.5021C46.0358 86.2527 47.2008 86.6987 48.3018 86.84C49.4029 86.9813 50.4104 86.8154 51.3242 86.3424C52.2381 85.8694 53.0216 85.0981 53.6749 84.0285C54.3282 82.9589 54.6774 81.8754 54.7227 80.7782C54.7452 79.667 54.4522 78.535 53.8439 77.3823L56.5987 76.0183C57.4183 77.6437 57.7872 79.2908 57.7054 80.9594C57.6148 82.5914 57.0552 84.2495 56.0267 85.9335Z" fill="white"/>
<path d="M62.7079 61.866C63.5484 62.8314 64.4937 63.5111 65.5438 63.905C66.614 64.2814 67.6937 64.3845 68.7829 64.2141C69.8746 64.0061 70.873 63.5081 71.7781 62.7201C72.5222 62.0723 73.1198 61.3576 73.5708 60.576C74.0244 59.7568 74.3262 58.946 74.4762 58.1437C74.6087 57.3212 74.5829 56.6011 74.3988 55.9836L77.0253 59.0004C77.0329 59.9838 76.7242 61.0304 76.0993 62.1401C75.477 63.2123 74.6933 64.1598 73.748 64.9828C72.4004 66.156 70.9122 66.9036 69.2834 67.2257C67.6545 67.5477 66.0455 67.4459 64.4563 66.9201C62.8698 66.3568 61.4724 65.3812 60.2642 63.9935C59.0385 62.5856 58.2646 61.0672 57.9426 59.4384C57.6406 57.792 57.7612 56.1843 58.3045 54.6152C58.8477 53.0462 59.7931 51.6751 61.1407 50.5019C62.0859 49.6789 63.1411 49.0431 64.3062 48.5945C65.4739 48.1082 66.5443 47.9365 67.5173 48.0794L70.1438 51.0963C69.5399 50.8088 68.8303 50.6841 68.0149 50.7222C67.1995 50.7603 66.3637 50.9577 65.5074 51.3143C64.6536 51.6332 63.8547 52.1167 63.1106 52.7645C62.2055 53.5525 61.5748 54.4728 61.2185 55.5256C60.8823 56.5608 60.8357 57.6444 61.0787 58.7764C61.3243 59.8707 61.8674 60.9006 62.7079 61.866Z" fill="white"/>
<path d="M78.9975 53.2066C79.3413 53.8087 79.7778 54.2504 80.3069 54.5317C80.8592 54.7997 81.4562 54.9041 82.0979 54.8448C82.7495 54.749 83.4111 54.5094 84.0826 54.1259C84.9394 53.6367 85.6044 53.0266 86.0776 52.2958C86.574 51.5517 86.8405 50.7547 86.8771 49.9046C86.9237 49.0182 86.709 48.1582 86.2329 47.3245L87.9788 49.0913C88.5606 50.1102 88.7307 51.134 88.4889 52.1625C88.2703 53.1779 87.802 54.1055 87.084 54.9455C86.3892 55.7722 85.6018 56.4368 84.7218 56.9392C83.7492 57.4946 82.7221 57.8201 81.6405 57.9157C80.5688 57.9749 79.5601 57.7679 78.6142 57.2947C77.6684 56.8214 76.8847 56.0406 76.2632 54.9522C75.3773 53.4007 75.214 51.851 75.7734 50.3032C76.3428 48.7191 77.6117 47.365 79.58 46.241C80.7379 45.5798 81.7782 45.17 82.7011 45.0115C83.6339 44.8166 84.431 44.7606 85.0925 44.8435C85.7408 44.9032 86.2055 44.991 86.4866 45.1069L87.4189 46.7394C86.291 46.6465 85.2325 46.7289 84.2435 46.9866C83.2412 47.2211 82.2538 47.6161 81.2812 48.1715C80.3781 48.6872 79.7032 49.2261 79.2565 49.7883C78.8329 50.3372 78.6012 50.8994 78.5614 51.4749C78.5215 52.0504 78.6669 52.6277 78.9975 53.2066ZM74.3756 46.0807L71.8506 44.8048C72.2014 44.021 72.7723 43.1116 73.5631 42.0766C74.3771 41.0283 75.5251 40.081 77.0071 39.2347C78.2576 38.5207 79.4584 38.096 80.6095 37.9607C81.7705 37.7891 82.8107 37.9167 83.7301 38.3437C84.6726 38.7574 85.4414 39.4853 86.0365 40.5274L92.5821 51.9901L89.8033 53.5769L83.4758 42.4963C83.1584 41.9405 82.808 41.5418 82.4244 41.3003C82.0275 41.0355 81.5959 40.8981 81.1296 40.8881C80.6863 40.8648 80.2183 40.9325 79.7254 41.0911C79.2325 41.2497 78.743 41.4679 78.2567 41.7456C77.4693 42.1952 76.8043 42.6977 76.2617 43.2532C75.7423 43.7955 75.3353 44.3197 75.0408 44.8256C74.7462 45.3316 74.5245 45.75 74.3756 46.0807Z" fill="white"/>
<path d="M94.7796 44.9893C95.3154 45.3966 95.8885 45.7488 96.4989 46.0457C97.1093 46.3427 97.7523 46.5296 98.4278 46.6066C99.1198 46.6497 99.8187 46.5493 100.524 46.3054C101.381 46.0094 101.984 45.5896 102.332 45.046C102.697 44.4686 102.762 43.8396 102.527 43.1591C102.318 42.5542 101.942 42.1197 101.399 41.8558C100.873 41.5579 100.26 41.3749 99.5591 41.3066C98.8497 41.2132 98.1112 41.158 97.3435 41.141C96.4829 41.0998 95.5922 41.0126 94.6716 40.8792C93.7674 40.712 92.9374 40.3922 92.1817 39.9197C91.4425 39.4133 90.8987 38.6561 90.5504 37.6479C90.1934 36.6145 90.1619 35.6661 90.4561 34.8027C90.7755 33.9306 91.3071 33.1827 92.0508 32.5589C92.8198 31.9265 93.6706 31.4491 94.6031 31.1269C95.5357 30.8047 96.4575 30.6555 97.3686 30.6793C98.3048 30.6944 99.1751 30.8452 99.9794 31.1315C100.784 31.4179 101.475 31.8278 102.055 32.3612L100.171 34.7473C99.4653 34.2575 98.6732 33.9245 97.7942 33.7486C96.9404 33.564 96.0599 33.6284 95.1525 33.9419C94.5224 34.1596 94.0284 34.4854 93.6705 34.9194C93.3126 35.3534 93.2338 35.8603 93.4341 36.44C93.5908 36.8937 93.9066 37.236 94.3813 37.4669C94.8561 37.6979 95.4187 37.8562 96.069 37.9419C96.7193 38.0275 97.3904 38.0919 98.0824 38.135C99.2299 38.1899 100.302 38.3131 101.299 38.5047C102.288 38.671 103.135 38.9991 103.84 39.4889C104.571 39.9701 105.114 40.7274 105.472 41.7608C105.994 43.2731 105.875 44.7249 105.114 46.1162C104.379 47.4989 103.116 48.4993 101.327 49.1176C100.167 49.5182 99.0516 49.6779 97.9797 49.5969C96.8991 49.4906 95.9179 49.223 95.0362 48.7941C94.1797 48.3565 93.47 47.854 92.9072 47.2867L94.7796 44.9893Z" fill="white"/>
<path d="M110.196 40.1525C110.298 40.8384 110.543 41.4086 110.934 41.8632C111.351 42.3139 111.869 42.6284 112.488 42.8067C113.13 42.9547 113.833 42.9723 114.598 42.8595C115.574 42.7156 116.416 42.3894 117.123 41.8809C117.856 41.3685 118.394 40.7231 118.737 39.9447C119.103 39.136 119.216 38.2568 119.076 37.3071L120.06 39.5881C120.231 40.7489 120.016 41.7643 119.417 42.6344C118.844 43.5006 118.07 44.1941 117.096 44.7152C116.148 45.2323 115.172 45.5647 114.17 45.7125C113.062 45.8758 111.987 45.8052 110.944 45.5006C109.925 45.1657 109.06 44.6057 108.352 43.8207C107.643 43.0357 107.197 42.0232 107.014 40.7832C106.754 39.0157 107.166 37.5129 108.25 36.2748C109.357 35.0065 111.032 34.2071 113.274 33.8766C114.593 33.6821 115.711 33.679 116.629 33.8673C117.568 34.0253 118.331 34.2632 118.917 34.5812C119.499 34.8727 119.9 35.1236 120.12 35.3338L120.394 37.1937C119.377 36.6967 118.361 36.3882 117.346 36.2683C116.328 36.122 115.264 36.1305 114.156 36.2938C113.127 36.4455 112.302 36.7018 111.682 37.0628C111.087 37.42 110.667 37.8593 110.42 38.3809C110.174 38.9024 110.099 39.4929 110.196 40.1525ZM108.485 31.8331L106.597 29.7258C107.21 29.1235 108.072 28.4842 109.185 27.8079C110.325 27.1278 111.739 26.6633 113.428 26.4144C114.852 26.2044 116.125 26.2459 117.247 26.5388C118.39 26.8015 119.313 27.299 120.014 28.0312C120.741 28.7596 121.192 29.7174 121.367 30.9046L123.292 43.9635L120.126 44.4301L118.266 31.8065C118.172 31.1734 117.991 30.6745 117.722 30.3099C117.448 29.9189 117.096 29.6338 116.666 29.4547C116.261 29.2717 115.801 29.1644 115.284 29.1328C114.767 29.1011 114.232 29.1261 113.678 29.2078C112.781 29.34 111.978 29.5661 111.271 29.886C110.59 30.2021 110.02 30.5422 109.561 30.9062C109.103 31.2703 108.744 31.5793 108.485 31.8331Z" fill="white"/>
<path d="M152.748 34.4438L151.41 45.9664L148.231 45.5972L149.523 34.472C149.705 32.9091 149.547 31.723 149.05 30.9137C148.58 30.1074 147.749 29.635 146.557 29.4966C145.683 29.395 144.907 29.4928 144.228 29.7898C143.552 30.0603 143.002 30.5199 142.578 31.1686C142.153 31.8173 141.886 32.6185 141.775 33.5721L140.483 44.6973L137.304 44.3281L138.597 33.2029C138.778 31.64 138.621 30.4539 138.124 29.6446C137.654 28.8383 136.823 28.3659 135.631 28.2275C134.757 28.1259 133.98 28.2237 133.301 28.5207C132.626 28.7912 132.076 29.2508 131.651 29.8995C131.227 30.5482 130.959 31.3494 130.849 32.303L129.556 43.4282L126.378 43.059L128.501 24.7818L131.679 25.151L131.37 27.8131C132.046 26.8447 132.824 26.1565 133.704 25.7486C134.61 25.3438 135.633 25.2075 136.772 25.3398C138.043 25.4875 139.094 25.9182 139.923 26.6321C140.783 27.3225 141.361 28.2354 141.659 29.3706C142.427 28.3054 143.32 27.5501 144.338 27.1046C145.36 26.6326 146.48 26.4674 147.698 26.6089C148.943 26.7535 149.97 27.1547 150.78 27.8125C151.589 28.4703 152.156 29.3683 152.48 30.5067C152.834 31.6216 152.923 32.934 152.748 34.4438Z" fill="white"/>
<path d="M160.703 50.2865C159.119 49.6512 157.857 48.7141 156.918 47.4752C156.013 46.2215 155.482 44.7875 155.325 43.173C155.193 41.5685 155.479 39.8876 156.184 38.1303C156.898 36.3483 157.87 34.9281 159.099 33.8695C160.353 32.8209 161.76 32.1785 163.32 31.9423C164.905 31.716 166.539 31.9404 168.222 32.6154C169.905 33.2905 171.197 34.2251 172.097 35.4194C173.031 36.5988 173.558 37.9734 173.675 39.5433C173.792 41.1132 173.489 42.8015 172.764 44.6082C172.694 44.7815 172.608 44.9621 172.503 45.1502C172.434 45.3234 172.389 45.4348 172.369 45.4843L157.779 39.6323L158.792 37.1078L171.043 42.0217L169.17 43.2529C169.294 43.159 169.443 43.0031 169.616 42.7854C169.8 42.543 169.926 42.3351 169.996 42.1618C170.403 41.1471 170.545 40.1841 170.422 39.2728C170.324 38.3715 170 37.5665 169.451 36.8579C168.902 36.1492 168.145 35.6013 167.18 35.2142C166.041 34.7575 164.964 34.6129 163.949 34.7803C162.968 34.9329 162.072 35.3777 161.259 36.1148C160.481 36.837 159.816 37.849 159.265 39.1509C158.729 40.4874 158.483 41.7102 158.526 42.8195C158.57 43.9288 158.901 44.8947 159.519 45.7173C160.137 46.5399 161.028 47.1845 162.191 47.651C163.355 48.1176 164.481 48.2821 165.57 48.1445C166.67 47.9821 167.737 47.5053 168.773 46.7139L170.576 49.204C169.109 50.2821 167.546 50.9194 165.887 51.1159C164.263 51.2976 162.535 51.0211 160.703 50.2865Z" fill="white"/>
<path d="M186.821 51.4655C187.674 50.2075 188.042 49.0715 187.925 48.0572C187.807 47.043 187.218 46.1767 186.159 45.4582C185.387 44.9343 184.59 44.6358 183.77 44.5626C182.987 44.4824 182.235 44.617 181.515 44.9662C180.816 45.3305 180.213 45.8878 179.704 46.6381L173.417 55.9072L170.769 54.111L181.097 38.8832L183.745 40.6794L182.129 43.0629C183.265 42.4803 184.358 42.2227 185.408 42.2903C186.48 42.3728 187.512 42.7508 188.505 43.4244C190.116 44.5171 191.018 45.9185 191.212 47.6286C191.442 49.3316 190.936 51.0989 189.694 52.9307L183.183 62.5308L180.534 60.7346L186.821 51.4655Z" fill="white"/>
<path d="M197.439 50.6326L204.131 56.9461L202.072 59.1282L195.381 52.8147L197.439 50.6326ZM204.013 48.0363L206.341 50.2323L189.322 68.2708L186.994 66.0748L204.013 48.0363Z" fill="white"/>
<path d="M199.108 64.4133C200.589 63.277 202.152 62.5986 203.798 62.3779C205.46 62.1784 207.057 62.3982 208.59 63.0375C210.122 63.6768 211.432 64.7052 212.52 66.1227C213.623 67.5614 214.278 69.093 214.482 70.7175C214.703 72.3632 214.493 73.9523 213.854 75.4847C213.231 77.0383 212.179 78.3832 210.698 79.5195C209.238 80.6395 207.667 81.3074 205.984 81.5231C204.338 81.7438 202.749 81.5345 201.217 80.8952C199.7 80.2771 198.39 79.2487 197.287 77.81C196.199 76.3925 195.545 74.8609 195.324 73.2152C195.104 71.5695 195.305 69.9699 195.928 68.4163C196.588 66.8677 197.648 65.5333 199.108 64.4133ZM201.08 66.9839C200.065 67.763 199.328 68.6645 198.87 69.6882C198.428 70.7331 198.258 71.8044 198.361 72.902C198.501 74.0045 198.936 75.0318 199.667 75.9839C200.397 76.936 201.269 77.6118 202.281 78.0114C203.331 78.416 204.41 78.5295 205.517 78.352C206.641 78.1957 207.71 77.728 208.726 76.9489C209.741 76.1697 210.47 75.2577 210.912 74.2128C211.391 73.1728 211.561 72.1016 211.421 70.999C211.297 69.9177 210.87 68.9009 210.139 67.9489C209.409 66.9968 208.529 66.3104 207.501 65.8896C206.488 65.49 205.41 65.3764 204.265 65.549C203.157 65.7264 202.096 66.2047 201.08 66.9839Z" fill="white"/>
<path d="M209.474 85.0832C209.138 85.6662 208.861 86.2793 208.644 86.9225C208.427 87.5656 208.323 88.2271 208.332 88.9069C208.377 89.5987 208.565 90.2793 208.896 90.9484C209.299 91.761 209.791 92.3055 210.375 92.5821C210.994 92.8708 211.626 92.8554 212.271 92.536C212.845 92.252 213.228 91.8242 213.421 91.2525C213.65 90.6929 213.754 90.0613 213.733 89.3576C213.735 88.642 213.697 87.9025 213.616 87.1389C213.548 86.28 213.522 85.3854 213.537 84.4553C213.589 83.5372 213.801 82.6734 214.174 81.8639C214.582 81.0665 215.265 80.4312 216.221 79.9579C217.2 79.4729 218.137 79.3215 219.031 79.504C219.936 79.7103 220.746 80.1428 221.459 80.8015C222.183 81.4842 222.765 82.2676 223.202 83.1519C223.64 84.0361 223.905 84.9316 223.997 85.8383C224.1 86.7689 224.061 87.6513 223.879 88.4854C223.697 89.3195 223.378 90.0576 222.922 90.6998L220.317 89.1332C220.713 88.3715 220.943 87.5435 221.006 86.6494C221.081 85.7791 220.906 84.9138 220.48 84.0534C220.184 83.456 219.798 83.0072 219.322 82.7072C218.847 82.4072 218.334 82.3932 217.784 82.6653C217.354 82.8783 217.054 83.2349 216.885 83.7351C216.716 84.2353 216.631 84.8134 216.628 85.4693C216.626 86.1252 216.647 86.7991 216.692 87.4909C216.783 88.6362 216.796 89.7155 216.733 90.729C216.693 91.7306 216.475 92.6122 216.078 93.3739C215.693 94.1595 215.011 94.7948 214.031 95.2799C212.597 95.9898 211.142 96.0556 209.666 95.4773C208.201 94.9229 207.049 93.7973 206.209 92.1005C205.664 91.0012 205.365 89.9148 205.309 88.8412C205.278 87.7559 205.419 86.7487 205.733 85.8197C206.058 84.9147 206.467 84.1471 206.958 83.5169L209.474 85.0832Z" fill="white"/>
<g clip-path="url(#clip1_109_994)">
<path d="M158.5 109H95.5C95.5 116.161 98.3446 123.028 103.408 128.092C108.472 133.155 115.339 136 122.5 136H131.5C138.489 136.005 145.207 133.3 150.243 128.453C155.278 123.607 158.238 116.996 158.5 110.013V109Z" stroke="#FF3F3F" stroke-width="5" stroke-linecap="round" stroke-linejoin="round"/>
<path d="M149.5 163C147.113 163 144.824 162.052 143.136 160.364C141.448 158.676 140.5 156.387 140.5 154C140.5 151.613 141.448 149.324 143.136 147.636C144.824 145.948 147.113 145 149.5 145C151.887 145 154.176 145.948 155.864 147.636C157.552 149.324 158.5 151.613 158.5 154C158.5 156.387 157.552 158.676 155.864 160.364C154.176 162.052 151.887 163 149.5 163Z" stroke="#FF3F3F" stroke-width="5" stroke-linecap="round" stroke-linejoin="round"/>
<path d="M140.5 136L145 145" stroke="#FF3F3F" stroke-width="5" stroke-linecap="round" stroke-linejoin="round"/>
<path d="M113.5 136L100 163" stroke="#FF3F3F" stroke-width="5" stroke-linecap="round" stroke-linejoin="round"/>
<path d="M140.5 154H104.5" stroke="#FF3F3F" stroke-width="5" stroke-linecap="round" stroke-linejoin="round"/>
<path d="M140.5 95.5V91" stroke="#FF3F3F" stroke-width="5" stroke-linecap="round" stroke-linejoin="round"/>
<path d="M127 95.5V91" stroke="#FF3F3F" stroke-width="5" stroke-linecap="round" stroke-linejoin="round"/>
<path d="M113.5 95.5V91" stroke="#FF3F3F" stroke-width="5" stroke-linecap="round" stroke-linejoin="round"/>
</g>
<defs>
<clipPath id="clip0_109_994">
<rect width="19" height="19" fill="white" transform="translate(211 102)"/>
</clipPath>
<clipPath id="clip1_109_994">
<rect width="108" height="108" fill="white" transform="translate(73 73)"/>
</clipPath>
</defs>
</svg>
